<svg xmlns="http://www.w3.org/2000/svg" viewBox="0 0 437.46 116.46">
  <g id="Layer_7" data-name="Layer 7">
    <g>
      <g>
        <rect x="2.86" y="55.5" width="43.31" height="10.83" style="fill: #fe864f"/>
        <path d="M2.86,71.74H29.93V93.4H78.06S67.48,104.23,44,104.23,5.13,84.08,2.86,71.74Z" style="fill: #f2f2f2"/>
        <path d="M2.86,50H30.12V28.24H78.06S67.48,17.6,44,17.6,5.13,37.7,2.86,50Z" style="fill: #f2f2f2"/>
        <polygon points="35.34 33.84 67.83 33.84 78.66 50.09 67.83 50.09 67.83 60.91 51.59 87.99 51.59 50.09 35.34 50.09 35.34 33.84" style="fill: #f2f2f2"/>
        <polygon points="67.83 87.99 57.09 87.99 67.83 69.49 67.83 87.99" style="fill: #fe864f"/>
        <polygon points="78.66 33.84 73.25 33.84 78.66 42.47 78.66 33.84" style="fill: #fe864f"/>
      </g>
      <text transform="translate(106.57 82.35)" style="font-size: 78.95707702636719px;fill: #fe864f;font-family: Montserrat-BoldItalic, Montserrat;font-weight: 700;font-style: italic">ea<tspan x="104.06" y="0" style="letter-spacing: -0.009993562701624553em">s</tspan><tspan x="145.2" y="0" style="letter-spacing: 0.01499034405243683em">y</tspan><tspan x="193.6" y="0" style="fill: #f2f2f2;letter-spacing: 0.000012368270670327417em">thz</tspan></text>
    </g>
  </g>
</svg>
